<?xml version="1.0" encoding="UTF-8"?>
<svg xmlns="http://www.w3.org/2000/svg"
     xmlns:xlink="http://www.w3.org/1999/xlink"
     xmlns:gadfly="http://www.gadflyjl.org/ns"
     version="1.2"
     width="152.4mm" height="76.2mm" viewBox="0 0 152.4 76.2"
     stroke="none"
     fill="#000000"
     stroke-width="0.3"
     font-size="3.88"
>
<g class="plotroot xscalable yscalable" id="img-9bd3a035-1">
  <g font-size="3.88" font-family="'PT Sans','Helvetica Neue','Helvetica',sans-serif" fill="#564A55" stroke="#000000" stroke-opacity="0.000" id="img-9bd3a035-2">
    <text x="83.52" y="64.59" text-anchor="middle" dy="0.6em">time (t)</text>
  </g>
  <g class="guide xlabels" font-size="2.82" font-family="'PT Sans Caption','Helvetica Neue','Helvetica',sans-serif" fill="#6C606B" id="img-9bd3a035-3">
    <text x="21.63" y="57.91" text-anchor="middle" dy="0.6em">0</text>
    <text x="83.52" y="57.91" text-anchor="middle" dy="0.6em">50</text>
    <text x="145.4" y="57.91" text-anchor="middle" dy="0.6em">100</text>
  </g>
<g clip-path="url(#img-9bd3a035-4)">
  <g id="img-9bd3a035-5">
    <g pointer-events="visible" opacity="1" fill="#000000" fill-opacity="0.000" stroke="#000000" stroke-opacity="0.000" class="guide background" id="img-9bd3a035-6">
      <rect x="19.63" y="12.61" width="127.77" height="44.3"/>
    </g>
    <g class="guide ygridlines xfixed" stroke-dasharray="0.5,0.5" stroke-width="0.2" stroke="#D0D0E0" id="img-9bd3a035-7">
      <path fill="none" d="M19.63,54.91 L 147.4 54.91"/>
      <path fill="none" d="M19.63,44.84 L 147.4 44.84"/>
      <path fill="none" d="M19.63,34.76 L 147.4 34.76"/>
      <path fill="none" d="M19.63,24.69 L 147.4 24.69"/>
      <path fill="none" d="M19.63,14.61 L 147.4 14.61"/>
    </g>
    <g class="guide xgridlines yfixed" stroke-dasharray="0.5,0.5" stroke-width="0.2" stroke="#D0D0E0" id="img-9bd3a035-8">
      <path fill="none" d="M21.63,12.61 L 21.63 56.91"/>
      <path fill="none" d="M83.52,12.61 L 83.52 56.91"/>
      <path fill="none" d="M145.4,12.61 L 145.4 56.91"/>
    </g>
    <g class="plotpanel" id="img-9bd3a035-9">
      <g stroke-width="0.35" fill="#000000" fill-opacity="0.000" class="geometry" stroke-dasharray="none" stroke="#FF0000" id="img-9bd3a035-10">
        <path fill="none" d="M22.87,54.91 L 24.11 54.71 25.34 54.91 26.58 54.71 27.82 54.49 29.06 54 30.3 53.18 31.53 52.11 32.77 53.05 34.01 52 35.25 52.92 36.48 52.62 37.72 52.71 38.96 53.1 40.2 52.62 41.43 52.38 42.67 52.56 43.91 52.25 45.15 51.16 46.39 51.79 47.62 51.2 48.86 50.63 50.1 50.96 51.34 49.86 52.57 48.92 53.81 49.1 55.05 48.67 56.29 47.32 57.52 46.67 58.76 47.08 60 46.25 61.24 45.84 62.48 46.59 63.71 45.5 64.95 44.13 66.19 44.11 67.43 43.93 68.66 43.92 69.9 43.73 71.14 43.62 72.38 42.81 73.61 41.81 74.85 42.8 76.09 42.15 77.33 41.28 78.57 40.96 79.8 41.99 81.04 40.86 82.28 39.66 83.52 38.75 84.75 39.17 85.99 37.74 87.23 35.61 88.47 37.19 89.7 35.52 90.94 32.62 92.18 34.06 93.42 33.91 94.65 32.68 95.89 33.92 97.13 32.54 98.37 33.38 99.61 33.69 100.84 32.26 102.08 30.24 103.32 31.54 104.56 32.16 105.79 31.28 107.03 32.35 108.27 31.1 109.51 32.34 110.74 32.37 111.98 31.66 113.22 31.59 114.46 31.57 115.7 31.04 116.93 30.01 118.17 29.66 119.41 28.94 120.65 27.27 121.88 27.1 123.12 26.8 124.36 27.06 125.6 26.37 126.83 25.03 128.07 25.14 129.31 24.16 130.55 24.87 131.79 25.37 133.02 24.63 134.26 25.2 135.5 23.95 136.74 24.87 137.97 25.22 139.21 23.56 140.45 25.32 141.69 24.43 142.92 23.86 144.16 24.28 145.4 23.47"/>
      </g>
    </g>
  </g>
</g>
  <g class="guide ylabels" font-size="2.82" font-family="'PT Sans Caption','Helvetica Neue','Helvetica',sans-serif" fill="#6C606B" id="img-9bd3a035-11">
    <text x="18.63" y="54.91" text-anchor="end" dy="0.35em">0</text>
    <text x="18.63" y="44.84" text-anchor="end" dy="0.35em">50</text>
    <text x="18.63" y="34.76" text-anchor="end" dy="0.35em">100</text>
    <text x="18.63" y="24.69" text-anchor="end" dy="0.35em">150</text>
    <text x="18.63" y="14.61" text-anchor="end" dy="0.35em">200</text>
  </g>
  <g font-size="3.88" font-family="'PT Sans','Helvetica Neue','Helvetica',sans-serif" fill="#564A55" stroke="#000000" stroke-opacity="0.000" id="img-9bd3a035-12">
    <text x="8.81" y="32.76" text-anchor="middle" dy="0.35em" transform="rotate(-90, 8.81, 34.76)">Variance (sigma^2)</text>
  </g>
  <g font-size="3.88" font-family="'PT Sans','Helvetica Neue','Helvetica',sans-serif" fill="#564A55" stroke="#000000" stroke-opacity="0.000" id="img-9bd3a035-13">
    <text x="83.52" y="10.61" text-anchor="middle">Variance of position with time </text>
  </g>
</g>
<defs>
  <clipPath id="img-9bd3a035-4">
  <path d="M19.63,12.61 L 147.4 12.61 147.4 56.91 19.63 56.91" />
</clipPath>
</defs>
</svg>
