<?xml version="1.0" encoding="UTF-8"?>
<svg xmlns="http://www.w3.org/2000/svg"
     xmlns:xlink="http://www.w3.org/1999/xlink"
     xmlns:gadfly="http://www.gadflyjl.org/ns"
     version="1.2"
     width="152.4mm" height="76.2mm" viewBox="0 0 152.4 76.2"
     stroke="none"
     fill="#000000"
     stroke-width="0.3"
     font-size="3.88"
>
<g class="plotroot xscalable yscalable" id="img-5d1ff3fc-1">
  <g font-size="3.88" font-family="'PT Sans','Helvetica Neue','Helvetica',sans-serif" fill="#564A55" stroke="#000000" stroke-opacity="0.000" id="img-5d1ff3fc-2">
    <text x="85.89" y="64.59" text-anchor="middle" dy="0.6em">time (t)</text>
  </g>
  <g class="guide xlabels" font-size="2.82" font-family="'PT Sans Caption','Helvetica Neue','Helvetica',sans-serif" fill="#6C606B" id="img-5d1ff3fc-3">
    <text x="26.38" y="57.91" text-anchor="middle" dy="0.6em">0</text>
    <text x="85.89" y="57.91" text-anchor="middle" dy="0.6em">50</text>
    <text x="145.4" y="57.91" text-anchor="middle" dy="0.6em">100</text>
  </g>
<g clip-path="url(#img-5d1ff3fc-4)">
  <g id="img-5d1ff3fc-5">
    <g pointer-events="visible" opacity="1" fill="#000000" fill-opacity="0.000" stroke="#000000" stroke-opacity="0.000" class="guide background" id="img-5d1ff3fc-6">
      <rect x="24.38" y="12.61" width="123.02" height="44.3"/>
    </g>
    <g class="guide ygridlines xfixed" stroke-dasharray="0.5,0.5" stroke-width="0.2" stroke="#D0D0E0" id="img-5d1ff3fc-7">
      <path fill="none" d="M24.38,54.91 L 147.4 54.91"/>
      <path fill="none" d="M24.38,41.48 L 147.4 41.48"/>
      <path fill="none" d="M24.38,28.05 L 147.4 28.05"/>
      <path fill="none" d="M24.38,14.61 L 147.4 14.61"/>
    </g>
    <g class="guide xgridlines yfixed" stroke-dasharray="0.5,0.5" stroke-width="0.2" stroke="#D0D0E0" id="img-5d1ff3fc-8">
      <path fill="none" d="M26.38,12.61 L 26.38 56.91"/>
      <path fill="none" d="M85.89,12.61 L 85.89 56.91"/>
      <path fill="none" d="M145.4,12.61 L 145.4 56.91"/>
    </g>
    <g class="plotpanel" id="img-5d1ff3fc-9">
      <g stroke-width="0.35" fill="#000000" fill-opacity="0.000" class="geometry" stroke-dasharray="none" stroke="#FF0000" id="img-5d1ff3fc-10">
        <path fill="none" d="M27.57,54.91 L 28.76 54.9 29.95 54.89 31.14 54.87 32.33 54.85 33.52 54.81 34.71 54.76 35.9 54.72 37.09 54.66 38.28 54.59 39.47 54.51 40.66 54.43 41.85 54.34 43.04 54.24 44.23 54.14 45.42 54.02 46.61 53.9 47.8 53.77 48.99 53.63 50.18 53.49 51.37 53.34 52.56 53.17 53.75 53 54.94 52.83 56.13 52.64 57.32 52.45 58.51 52.25 59.7 52.04 60.89 51.82 62.08 51.6 63.28 51.37 64.47 51.13 65.66 50.88 66.85 50.62 68.04 50.36 69.23 50.09 70.42 49.81 71.61 49.52 72.8 49.23 73.99 48.92 75.18 48.61 76.37 48.29 77.56 47.97 78.75 47.63 79.94 47.29 81.13 46.94 82.32 46.58 83.51 46.22 84.7 45.84 85.89 45.46 87.08 45.07 88.27 44.67 89.46 44.27 90.65 43.85 91.84 43.43 93.03 43.01 94.22 42.57 95.41 42.12 96.6 41.67 97.79 41.21 98.98 40.74 100.17 40.27 101.36 39.78 102.55 39.29 103.74 38.79 104.93 38.28 106.12 37.77 107.31 37.24 108.5 36.71 109.69 36.17 110.88 35.63 112.07 35.07 113.26 34.51 114.45 33.94 115.64 33.36 116.83 32.77 118.03 32.18 119.22 31.58 120.41 30.97 121.6 30.35 122.79 29.73 123.98 29.09 125.17 28.45 126.36 27.8 127.55 27.14 128.74 26.48 129.93 25.81 131.12 25.13 132.31 24.44 133.5 23.74 134.69 23.03 135.88 22.32 137.07 21.6 138.26 20.87 139.45 20.14 140.64 19.4 141.83 18.64 143.02 17.88 144.21 17.12 145.4 16.34"/>
      </g>
    </g>
  </g>
</g>
  <g class="guide ylabels" font-size="2.82" font-family="'PT Sans Caption','Helvetica Neue','Helvetica',sans-serif" fill="#6C606B" id="img-5d1ff3fc-11">
    <text x="23.38" y="54.91" text-anchor="end" dy="0.35em">0</text>
    <text x="23.38" y="41.48" text-anchor="end" dy="0.35em">1×10³</text>
    <text x="23.38" y="28.05" text-anchor="end" dy="0.35em">2×10³</text>
    <text x="23.38" y="14.61" text-anchor="end" dy="0.35em">3×10³</text>
  </g>
  <g font-size="3.88" font-family="'PT Sans','Helvetica Neue','Helvetica',sans-serif" fill="#564A55" stroke="#000000" stroke-opacity="0.000" id="img-5d1ff3fc-12">
    <text x="8.81" y="32.76" text-anchor="middle" dy="0.35em" transform="rotate(-90, 8.81, 34.76)">Variance (sigma^2)</text>
  </g>
  <g font-size="3.88" font-family="'PT Sans','Helvetica Neue','Helvetica',sans-serif" fill="#564A55" stroke="#000000" stroke-opacity="0.000" id="img-5d1ff3fc-13">
    <text x="85.89" y="10.61" text-anchor="middle">Variance of position with time </text>
  </g>
</g>
<defs>
  <clipPath id="img-5d1ff3fc-4">
  <path d="M24.38,12.61 L 147.4 12.61 147.4 56.91 24.38 56.91" />
</clipPath>
</defs>
</svg>
